<svg xmlns="http://www.w3.org/2000/svg"><symbol viewBox="0 0 512 512" id="address" xmlns="http://www.w3.org/2000/svg"><path d="M424.473 301H311.258l58.96-94.078c13.563-21.512 20.735-46.383 20.735-71.922 0-74.438-60.562-135-135-135-74.441 0-135 60.563-135 135 0 25.54 7.168 50.41 20.711 71.887L200.648 301H87.43L0 512h511.902zm-76.934 120h94.184L467 482H355.316zm-22.469 61H186.684l7.582-61h123.03zm104.223-91h-85.578l-7.649-60h68.364zm-278.34-256c0-57.898 47.102-105 105-105 57.895 0 105 47.102 105 105 0 19.867-5.57 39.203-16.133 55.953l-88.867 141.8-88.89-141.831c-10.54-16.719-16.11-36.055-16.11-55.922zm105 254.246L292.457 331h13.367l7.649 60h-115.48l7.46-60h13.996zM107.473 331h67.75l-7.461 60H82.609zM70.18 421h93.855l-7.586 61H44.902zm0 0"/><path d="M330.953 135c0-41.355-33.644-75-75-75s-75 33.645-75 75 33.645 75 75 75 75-33.645 75-75zm-120 0c0-24.813 20.188-45 45-45s45 20.188 45 45-20.187 45-45 45-45-20.188-45-45zm0 0"/></symbol><symbol viewBox="0 0 511.343 511.343" id="buy" xmlns="http://www.w3.org/2000/svg"><path d="M490.334 106.668H90.526l-5.943-66.207c-.972-10.827-10.046-19.123-20.916-19.123H21c-11.598 0-21 9.402-21 21s9.402 21 21 21h23.468C57.293 206.22 24.147-163.077 68.621 332.427c1.714 19.394 12.193 40.439 30.245 54.739C66.319 428.73 96.057 490.005 149 490.005c43.942 0 74.935-43.826 59.866-85.334h114.936c-15.05 41.455 15.876 85.334 59.866 85.334 35.106 0 63.667-28.561 63.667-63.667s-28.561-63.667-63.667-63.667H149.142c-15.952 0-29.853-9.624-35.853-23.646l335.608-19.724a21.002 21.002 0 0019.141-15.87l42.67-170.67c3.308-13.234-6.71-26.093-20.374-26.093zM149 448.005c-11.946 0-21.666-9.72-21.666-21.667s9.72-21.667 21.666-21.667c11.947 0 21.667 9.72 21.667 21.667s-9.72 21.667-21.667 21.667zm234.667 0c-11.947 0-21.667-9.72-21.667-21.667s9.72-21.667 21.667-21.667 21.667 9.72 21.667 21.667-9.72 21.667-21.667 21.667zm47.366-169.726l-323.397 19.005-13.34-148.617h369.142z"/></symbol><symbol viewBox="0 0 511.999 511.999" id="conversation" xmlns="http://www.w3.org/2000/svg"><path d="M1.843 401.843L31.58 315.3c-14.334-29.302-21.909-61.89-21.96-94.679-.088-57.013 21.97-110.92 62.112-151.79 40.15-40.878 93.652-63.889 150.652-64.792 59.105-.934 114.661 21.548 156.428 63.314 40.274 40.273 62.612 93.366 63.319 150.102 39.694 29.886 63.123 76.481 63.046 126.25-.037 23.29-5.279 46.441-15.212 67.376l20.483 59.608c3.521 10.247.949 21.373-6.713 29.035-5.392 5.393-12.501 8.264-19.812 8.264-3.076 0-6.188-.508-9.223-1.551l-59.609-20.483c-20.935 9.933-44.086 15.175-67.376 15.212h-.248c-50.51-.002-97.46-24.035-127.237-64.702-30.987-.816-61.646-8.317-89.363-21.876l-86.544 29.738a33.696 33.696 0 01-10.959 1.843c-8.688 0-17.136-3.412-23.545-9.822-9.104-9.105-12.16-22.326-7.976-34.504zm345.626 68.847h.199c20.614-.031 41.085-5.113 59.196-14.695a15.244 15.244 0 0112.078-.942l61.123 21.003-21.003-61.122a15.24 15.24 0 01.942-12.078c9.582-18.112 14.664-38.582 14.696-59.197.051-33.159-12.848-64.588-35.405-88.122-7.368 44.916-28.775 86.306-61.957 118.898-32.937 32.351-74.339 52.949-119.011 59.683 23.588 23.249 55.384 36.572 89.142 36.572zM31.371 414.797c.867.867 1.895 1.103 3.051.705l92.648-31.836a15.232 15.232 0 0112.077.942c26.453 13.994 56.345 21.416 86.447 21.462h.288c100.863 0 184.176-81.934 185.774-182.773.805-50.785-18.513-98.514-54.394-134.395-35.881-35.881-83.618-55.192-134.396-54.392C121.93 36.111 39.94 119.578 40.096 220.573c.047 30.102 7.468 59.995 21.461 86.446a15.24 15.24 0 01.942 12.078l-31.835 92.648c-.397 1.16-.159 2.187.707 3.052z" data-original="#000000" class="cactive-path"/><path d="M135.107 139.512h181.56c8.416 0 15.238 6.823 15.238 15.238 0 8.416-6.823 15.238-15.238 15.238h-181.56c-8.416 0-15.238-6.823-15.238-15.238s6.822-15.238 15.238-15.238zm0 62.671h181.56c8.416 0 15.238 6.823 15.238 15.238s-6.823 15.238-15.238 15.238h-181.56c-8.416 0-15.238-6.823-15.238-15.238s6.822-15.238 15.238-15.238zm69.888 62.669h111.673c8.416 0 15.238 6.823 15.238 15.238 0 8.416-6.823 15.238-15.238 15.238H204.996c-8.416 0-15.238-6.823-15.238-15.238s6.821-15.238 15.237-15.238z" data-original="#000000" class="cactive-path"/></symbol><symbol viewBox="-110 1 511 512" id="facebook" xmlns="http://www.w3.org/2000/svg"><path d="M180 512H98.008c-13.695 0-24.836-11.14-24.836-24.836V302.227H25.336C11.64 302.227.5 291.082.5 277.39v-79.246c0-13.696 11.14-24.836 24.836-24.836h47.836v-39.684c0-39.348 12.355-72.824 35.726-96.805C132.375 12.73 165.184 0 203.778 0l62.53.102c13.672.023 24.794 11.164 24.794 24.835v73.579c0 13.695-11.137 24.836-24.829 24.836l-42.101.015c-12.84 0-16.11 2.574-16.809 3.363-1.152 1.31-2.523 5.008-2.523 15.223v31.352h58.27c4.386 0 8.636 1.082 12.288 3.12 7.88 4.403 12.778 12.727 12.778 21.723l-.031 79.247c0 13.687-11.141 24.828-24.836 24.828h-58.47v184.941C204.84 500.86 193.696 512 180 512zm-76.813-30.016h71.633V288.79c0-9.144 7.442-16.582 16.582-16.582h66.727l.027-68.883h-66.758c-9.14 0-16.578-7.437-16.578-16.582v-44.789c0-11.726 1.192-25.062 10.043-35.086 10.696-12.117 27.551-13.515 39.301-13.515l36.922-.016V30.109l-57.332-.093c-62.024 0-100.566 39.703-100.566 103.609v53.117c0 9.14-7.438 16.582-16.579 16.582H30.516v68.883h56.093c9.141 0 16.579 7.438 16.579 16.582zM266.25 30.117h.004zm0 0"/></symbol><symbol viewBox="0 0 512 512" id="facebook-messenger" xmlns="http://www.w3.org/2000/svg"><path d="M511.945 245.64c-1.53-66.98-29.011-129.398-77.382-175.753-48.301-46.29-111.747-71.082-178.59-69.84-66.871-1.254-130.286 23.555-178.586 69.84C29.016 116.242 1.535 178.66.004 245.637l-.004.21v.212a241.633 241.633 0 0080.32 178.64v61.887c0 12.012 8.387 22.476 19.942 24.883 1.71.355 3.433.531 5.148.531a24.92 24.92 0 0013.242-3.813l49.739-31.07c28.05 9.82 57.32 14.797 87.078 14.797h.375c1.644.031 3.277.047 4.918.047 65.105-.004 126.656-24.707 173.8-69.887 48.372-46.355 75.852-108.77 77.383-175.75l.008-.344zm-98.16 154.755c-41.515 39.785-95.707 61.539-153.039 61.539a245 245 0 01-4.476-.043l-.165-.004h-.16a233.044 233.044 0 01-80.918-14.29c-6.433-2.359-13.441-1.636-19.222 1.977l-45.457 28.395v-56.926a21.98 21.98 0 00-7.575-16.578c-45.867-39.871-72.37-97.578-72.742-158.352 1.395-58.898 25.586-113.773 68.133-154.547 42.594-40.816 98.559-62.644 157.512-61.492l.297.004.297-.004c58.992-1.164 114.92 20.676 157.515 61.492 42.508 40.739 66.695 95.57 68.13 154.414-1.43 58.848-25.618 113.676-68.13 154.415zm0 0"/><path d="M394.566 163.723L299.25 215.69l-57.098-48.96c-9.879-8.47-24.824-7.895-34.02 1.304L87.623 288.547c-4.72 4.75-7.31 11.047-7.286 17.738.02 6.695 2.644 12.98 7.39 17.695 4.84 4.81 11.172 7.317 17.61 7.317 4.086 0 8.21-1.008 12.027-3.078l95.32-51.969 57.157 48.98c9.879 8.47 24.824 7.895 34.02-1.304l120.53-120.531c8.688-8.77 9.645-22.805 2.239-32.672-7.41-9.914-21.192-12.922-32.063-7zm-108.683 135.71l-57.895-49.613c-4.047-3.468-9.164-5.258-14.312-5.258-3.594 0-7.203.872-10.469 2.653l-69.895 38.105 92.793-92.793 57.829 49.59c6.875 5.895 16.836 6.945 24.793 2.61l70.066-38.204zm0 0"/></symbol><symbol viewBox="0 0 978.549 978.548" id="faq-button" xmlns="http://www.w3.org/2000/svg"><path d="M120.233 705.269c37.688 37.688 81.586 67.281 130.472 87.959 50.632 21.416 104.395 32.273 159.797 32.273 47.91 0 94.593-8.127 139.085-24.172l-7.349 86.784 125.603-93.877 72.687 179.814 155.15-62.716-72.686-179.814 155.557-19.774-181.42-158.488c15.849-44.244 23.876-90.646 23.876-138.26 0-55.402-10.857-109.166-32.272-159.797-20.679-48.887-50.271-92.784-87.96-130.472-37.689-37.688-81.586-67.282-130.474-87.959C519.668 15.355 465.904 4.498 410.502 4.498S301.337 15.355 250.705 36.771c-48.886 20.677-92.783 50.271-130.472 87.959-37.689 37.688-67.282 81.586-87.96 130.472C10.858 305.834 0 359.598 0 415s10.858 109.166 32.273 159.797c20.678 48.886 50.272 92.784 87.96 130.472zm610.884-27.592l79.938 197.756-34.626 13.997-74.798-185.041-5.14-12.716-77.276 57.759 5.935-70.072 14.983-176.94 74.851 65.388 54.059 47.227 57.782 50.478-95.708 12.164zM169.73 174.229c64.312-64.312 149.82-99.731 240.771-99.731 90.952 0 176.46 35.418 240.772 99.731 64.312 64.312 99.729 149.82 99.729 240.771 0 30.115-3.906 59.626-11.436 87.977l-153.37-133.983-29.974 353.946c-44.969 21.317-94.481 32.562-145.724 32.562-90.951 0-176.459-35.418-240.771-99.73-64.312-64.313-99.73-149.82-99.73-240.771.002-90.952 35.421-176.46 99.733-240.772z"/><path d="M410.502 229.515c49.348 0 89.494 40.146 89.494 89.494s-40.146 89.494-89.494 89.494h-35v135.495h70v-69.364c71.169-15.993 124.494-79.697 124.494-155.625 0-87.945-71.549-159.494-159.494-159.494-33.062 0-64.786 10.033-91.743 29.015-26.319 18.532-46.214 44.196-57.532 74.216l65.499 24.696c13.063-34.649 46.73-57.927 83.776-57.927zm-33.555 353.298h67.109v67.108h-67.109z"/></symbol><symbol viewBox="0 -28 512 512" id="heart" xmlns="http://www.w3.org/2000/svg"><path d="M471.383 44.578C444.879 15.832 408.512 0 368.973 0c-29.555 0-56.621 9.344-80.45 27.77C276.5 37.07 265.605 48.45 256 61.73c-9.602-13.277-20.5-24.66-32.527-33.96C199.648 9.344 172.582 0 143.027 0c-39.539 0-75.91 15.832-102.414 44.578C14.426 72.988 0 111.801 0 153.871c0 43.3 16.137 82.938 50.781 124.742 30.992 37.395 75.535 75.356 127.117 119.313 17.614 15.012 37.579 32.027 58.309 50.152A30.023 30.023 0 00256 455.516a30.03 30.03 0 0019.785-7.43c20.73-18.129 40.707-35.152 58.328-50.172 51.575-43.95 96.117-81.906 127.11-119.305C495.867 236.81 512 197.172 512 153.867c0-42.066-14.426-80.879-40.617-109.289zm0 0"/></symbol><symbol viewBox="0 0 511 511.9" id="instagram" xmlns="http://www.w3.org/2000/svg"><path d="M510.95 150.5c-1.2-27.2-5.598-45.898-11.9-62.102-6.5-17.199-16.5-32.597-29.6-45.398-12.802-13-28.302-23.102-45.302-29.5-16.296-6.3-34.898-10.7-62.097-11.898C334.648.3 325.949 0 256.449 0s-78.199.3-105.5 1.5c-27.199 1.2-45.898 5.602-62.097 11.898-17.204 6.5-32.602 16.5-45.403 29.602-13 12.8-23.097 28.3-29.5 45.3-6.3 16.302-10.699 34.9-11.898 62.098C.75 177.801.449 186.5.449 256s.301 78.2 1.5 105.5c1.2 27.2 5.602 45.898 11.903 62.102 6.5 17.199 16.597 32.597 29.597 45.398 12.801 13 28.301 23.102 45.301 29.5 16.3 6.3 34.898 10.7 62.102 11.898 27.296 1.204 36 1.5 105.5 1.5s78.199-.296 105.5-1.5c27.199-1.199 45.898-5.597 62.097-11.898a130.934 130.934 0 0074.903-74.898c6.296-16.301 10.699-34.903 11.898-62.102 1.2-27.3 1.5-36 1.5-105.5s-.102-78.2-1.3-105.5zm-46.098 209c-1.102 25-5.301 38.5-8.801 47.5-8.602 22.3-26.301 40-48.602 48.602-9 3.5-22.597 7.699-47.5 8.796-27 1.204-35.097 1.5-103.398 1.5s-76.5-.296-103.403-1.5c-25-1.097-38.5-5.296-47.5-8.796C94.551 451.5 84.45 445 76.25 436.5c-8.5-8.3-15-18.3-19.102-29.398-3.5-9-7.699-22.602-8.796-47.5-1.204-27-1.5-35.102-1.5-103.403s.296-76.5 1.5-103.398c1.097-25 5.296-38.5 8.796-47.5C61.25 94.199 67.75 84.1 76.352 75.898c8.296-8.5 18.296-15 29.398-19.097 9-3.5 22.602-7.7 47.5-8.801 27-1.2 35.102-1.5 103.398-1.5 68.403 0 76.5.3 103.403 1.5 25 1.102 38.5 5.3 47.5 8.8 11.097 4.098 21.199 10.598 29.398 19.098 8.5 8.301 15 18.301 19.102 29.403 3.5 9 7.699 22.597 8.8 47.5 1.2 27 1.5 35.097 1.5 103.398s-.3 76.301-1.5 103.301zm0 0"/><path d="M256.45 124.5c-72.598 0-131.5 58.898-131.5 131.5s58.902 131.5 131.5 131.5c72.6 0 131.5-58.898 131.5-131.5s-58.9-131.5-131.5-131.5zm0 216.8c-47.098 0-85.302-38.198-85.302-85.3s38.204-85.3 85.301-85.3c47.102 0 85.301 38.198 85.301 85.3s-38.2 85.3-85.3 85.3zm167.402-222c0 16.954-13.747 30.7-30.704 30.7-16.953 0-30.699-13.746-30.699-30.7 0-16.956 13.746-30.698 30.7-30.698 16.956 0 30.703 13.742 30.703 30.699zm0 0"/></symbol><symbol viewBox="0 0 512.005 512.005" id="loupe" xmlns="http://www.w3.org/2000/svg"><path d="M505.749 475.587l-145.6-145.6c28.203-34.837 45.184-79.104 45.184-127.317C405.333 90.926 314.41.003 202.666.003S0 90.925 0 202.669s90.923 202.667 202.667 202.667c48.213 0 92.48-16.981 127.317-45.184l145.6 145.6c4.16 4.16 9.621 6.251 15.083 6.251s10.923-2.091 15.083-6.251c8.341-8.341 8.341-21.824-.001-30.165zM202.667 362.669c-88.235 0-160-71.765-160-160s71.765-160 160-160 160 71.765 160 160-71.766 160-160 160z"/></symbol><symbol viewBox="0 0 512 512" id="pin" xmlns="http://www.w3.org/2000/svg"><path d="M256 0C156.748 0 76 80.748 76 180c0 33.534 9.289 66.26 26.869 94.652l142.885 230.257A15 15 0 00258.499 512h.119a14.997 14.997 0 0012.75-7.292L410.611 272.22C427.221 244.428 436 212.539 436 180 436 80.748 355.252 0 256 0zm128.866 256.818L258.272 468.186l-129.905-209.34C113.734 235.214 105.8 207.95 105.8 180c0-82.71 67.49-150.2 150.2-150.2S406.1 97.29 406.1 180c0 27.121-7.411 53.688-21.234 76.818z"/><path d="M256 90c-49.626 0-90 40.374-90 90 0 49.309 39.717 90 90 90 50.903 0 90-41.233 90-90 0-49.626-40.374-90-90-90zm0 150.2c-33.257 0-60.2-27.033-60.2-60.2 0-33.084 27.116-60.2 60.2-60.2s60.1 27.116 60.1 60.2c0 32.683-26.316 60.2-60.1 60.2z"/></symbol><symbol viewBox="0 -11 511.998 511" id="signs" xmlns="http://www.w3.org/2000/svg"><path d="M510.64 185.508c-3.874-11.934-15.425-20.133-31.683-22.496l-132.512-19.258-59.261-120.07C279.914 8.949 268.547.5 256 .5s-23.914 8.45-31.187 23.184l-59.254 120.07-132.52 19.258c-16.258 2.363-27.809 10.562-31.684 22.496-3.875 11.933.649 25.355 12.415 36.82l95.89 93.465-22.64 131.98c-2.895 16.88 2.039 26.997 6.687 32.508 5.457 6.469 13.406 10.031 22.39 10.031 6.766 0 13.958-1.976 21.38-5.878L256 422.12l118.527 62.313c7.422 3.902 14.614 5.878 21.375 5.882h.004c8.985 0 16.938-3.566 22.39-10.035 4.65-5.511 9.583-15.629 6.684-32.508l-22.632-131.98 95.882-93.461c11.766-11.469 16.29-24.89 12.41-36.824zm-33.347 15.34l-101.531 98.968a14.998 14.998 0 00-4.313 13.278l23.965 139.754c.7 4.066.398 6.375.121 7.453-1.07-.07-3.367-.485-7.047-2.418L262.98 391.898a15.002 15.002 0 00-13.96 0l-125.5 65.98c-3.68 1.935-5.98 2.352-7.051 2.423-.274-1.078-.578-3.387.12-7.453l23.973-139.75a15.004 15.004 0 00-4.316-13.278L34.711 200.848c-2.953-2.88-4.066-4.922-4.48-5.957.94-.594 3.042-1.594 7.124-2.188l140.325-20.39a15.001 15.001 0 0011.293-8.208l62.746-127.144c1.828-3.7 3.426-5.387 4.285-6.102.855.715 2.457 2.403 4.281 6.102l62.75 127.144a15.014 15.014 0 0011.297 8.208l140.313 20.39c4.085.594 6.183 1.594 7.125 2.188-.415 1.03-1.524 3.078-4.477 5.957zm0 0"/></symbol><symbol viewBox="0 -11 512 512" id="signs-full" xmlns="http://www.w3.org/2000/svg"><path d="M510.645 185.012c-3.88-11.934-15.426-20.133-31.684-22.496l-132.512-19.258-59.265-120.074C279.914 8.454 268.547 0 256 0s-23.914 8.453-31.184 23.188l-59.257 120.07-132.516 19.258c-16.262 2.363-27.813 10.562-31.688 22.496-3.875 11.933.649 25.355 12.415 36.82l95.89 93.465-22.64 131.98c-2.895 16.88 2.039 26.993 6.687 32.508 5.453 6.469 13.406 10.031 22.395 10.031 6.761 0 13.953-1.98 21.378-5.882L256 421.625l118.527 62.313c7.422 3.902 14.614 5.878 21.375 5.878h.004c8.985 0 16.942-3.562 22.395-10.03 4.644-5.513 9.582-15.63 6.683-32.509l-22.636-131.98 95.886-93.465c11.762-11.465 16.286-24.887 12.41-36.82zm0 0"/></symbol><symbol viewBox="0 0 528 528" id="smartphone" xmlns="http://www.w3.org/2000/svg"><path d="M379.5 0h-231C121.204 0 99 22.204 99 49.5v429c0 27.296 22.204 49.5 49.5 49.5h231c27.296 0 49.5-22.204 49.5-49.5v-429C429 22.204 406.796 0 379.5 0zm-231 33h231c9.104 0 16.5 7.396 16.5 16.5V396H132V49.5c0-9.104 7.396-16.5 16.5-16.5zm231 462h-231c-9.104 0-16.5-7.396-16.5-16.5V429h264v49.5c0 9.104-7.396 16.5-16.5 16.5z"/><path d="M275.667 450.333c6.444 6.444 6.444 16.891 0 23.335s-16.891 6.444-23.335 0-6.444-16.891 0-23.335 16.891-6.444 23.335 0"/></symbol><symbol viewBox="0 -39 512 512" id="telegram" xmlns="http://www.w3.org/2000/svg"><path d="M504.094 11.86C497.84 4.21 488.473 0 477.714 0c-5.847 0-12.042 1.23-18.41 3.664L25.907 169.105c-23 8.778-26.097 21.95-25.898 29.02s4.039 20.047 27.5 27.512c.14.043.281.086.422.125l89.898 25.726 48.617 139.024c6.63 18.953 21.508 30.726 38.836 30.726 10.926 0 21.672-4.578 31.078-13.234l55.606-51.2 80.652 64.942c.008.008.02.012.028.02l.765.617.215.168c8.965 6.953 18.75 10.625 28.309 10.629h.003c18.676 0 33.547-13.825 37.88-35.215l71.011-350.64c2.852-14.075.461-26.669-6.734-35.466zM147.902 246.601l173.442-88.606L213.348 272.75a14.975 14.975 0 00-3.641 6.684l-20.824 84.351zm68.133 139.332c-.719.66-1.441 1.25-2.164 1.793l19.32-78.25 35.145 28.3zm265.39-344.567l-71.01 350.645c-.685 3.355-2.868 11.164-8.481 11.164-2.774 0-6.258-1.512-9.825-4.258l-91.39-73.586a.173.173 0 00-.043-.031l-54.38-43.79 156.177-165.949a15 15 0 00-17.746-23.636L127.859 223.152l-91.12-26.07 433.265-165.39c3.66-1.399 6.215-1.692 7.71-1.692.919 0 2.552.11 3.157.855.797.973 1.813 4.29.555 10.512zm0 0"/></symbol><symbol viewBox="0 0 24 24" id="viber" xmlns="http://www.w3.org/2000/svg"><path d="M23.155 13.893c.716-6.027-.344-9.832-2.256-11.553l.001-.001C17.814-.6 7.392-1.035 3.7 2.471 2.042 4.186 1.458 6.703 1.394 9.819c-.064 3.117-.14 8.956 5.301 10.54H6.7l-.005 2.419s-.037.98.589 1.177c.716.232 1.04-.223 3.267-2.883 3.724.323 6.584-.417 6.909-.525.752-.252 5.007-.815 5.695-6.654zM10.918 19.37s-2.357 2.939-3.09 3.702c-.24.248-.503.225-.499-.267 0-.323.018-4.016.018-4.016-4.613-1.322-4.341-6.294-4.291-8.895.05-2.602.526-4.733 1.93-6.168C8.225.689 17.362 1.368 19.69 3.556c2.846 2.523 1.833 9.651 1.839 9.894-.585 4.874-4.033 5.183-4.667 5.394-.271.09-2.786.737-5.944.526z"/><path d="M12.222 4.297c-.385 0-.385.6 0 .605 2.987.023 5.447 2.105 5.474 5.924 0 .403.59.398.585-.005h-.001c-.032-4.115-2.718-6.501-6.058-6.524z"/><path d="M16.151 10.193c-.009.398.58.417.585.014.049-2.269-1.35-4.138-3.979-4.335-.385-.028-.425.577-.041.605 2.28.173 3.481 1.729 3.435 3.716zm-.63 2.581c-.494-.286-.997-.108-1.205.173l-.435.563c-.221.286-.634.248-.634.248-3.014-.797-3.82-3.951-3.82-3.951s-.037-.427.239-.656l.544-.45c.272-.216.444-.736.167-1.247-.74-1.337-1.237-1.798-1.49-2.152-.266-.333-.666-.408-1.082-.183h-.009c-.865.506-1.812 1.453-1.509 2.428.517 1.028 1.467 4.305 4.495 6.781 1.423 1.171 3.675 2.371 4.631 2.648l.009.014c.942.314 1.858-.67 2.347-1.561v-.007c.217-.431.145-.839-.172-1.106-.562-.548-1.41-1.153-2.076-1.542z"/><path d="M13.169 8.104c.961.056 1.427.558 1.477 1.589.018.403.603.375.585-.028-.064-1.346-.766-2.096-2.03-2.166-.385-.023-.421.582-.032.605z"/></symbol><symbol viewBox="-23 -21 682 682.667" id="whatsapp" xmlns="http://www.w3.org/2000/svg"><path d="M544.387 93.008C484.512 33.063 404.883.035 320.05 0 145.246 0 2.98 142.262 2.91 317.113c-.024 55.895 14.577 110.457 42.331 158.551L.25 640l168.121-44.102c46.324 25.27 98.477 38.586 151.55 38.602h.134c174.785 0 317.066-142.273 317.132-317.133.036-84.742-32.921-164.418-92.8-224.36zM320.05 580.94h-.11c-47.296-.02-93.683-12.73-134.16-36.742l-9.62-5.715-99.766 26.172 26.628-97.27-6.27-9.972c-26.386-41.969-40.32-90.476-40.296-140.281.055-145.332 118.305-263.57 263.7-263.57 70.406.023 136.59 27.476 186.355 77.3s77.156 116.051 77.133 186.485C583.582 462.69 465.34 580.94 320.05 580.94zm144.586-197.418c-7.922-3.968-46.883-23.132-54.149-25.78-7.258-2.645-12.547-3.962-17.824 3.968-5.285 7.93-20.469 25.781-25.094 31.066-4.625 5.29-9.242 5.953-17.168 1.985-7.925-3.965-33.457-12.336-63.726-39.332-23.555-21.012-39.457-46.961-44.082-54.89-4.617-7.938-.04-11.813 3.476-16.173 8.578-10.652 17.168-21.82 19.809-27.105 2.644-5.29 1.32-9.918-.664-13.883-1.977-3.965-17.824-42.969-24.426-58.84-6.437-15.445-12.965-13.36-17.832-13.601-4.617-.231-9.902-.278-15.187-.278-5.282 0-13.868 1.98-21.133 9.918-7.262 7.934-27.73 27.102-27.73 66.106s28.394 76.683 32.355 81.972c3.96 5.29 55.879 85.328 135.367 119.649 18.906 8.172 33.664 13.043 45.176 16.695 18.984 6.031 36.254 5.18 49.91 3.14 15.226-2.277 46.879-19.171 53.488-37.68 6.602-18.51 6.602-34.374 4.617-37.683-1.976-3.304-7.261-5.285-15.183-9.254zm0 0" fill-rule="evenodd"/></symbol></svg>